<?xml version="1.0" standalone="no"?><!DOCTYPE svg PUBLIC "-//W3C//DTD SVG 1.1//EN" "http://www.w3.org/Graphics/SVG/1.1/DTD/svg11.dtd"><svg t="1766821641027" class="icon" viewBox="0 0 1024 1024" version="1.1" xmlns="http://www.w3.org/2000/svg" p-id="8260" xmlns:xlink="http://www.w3.org/1999/xlink" width="200" height="200"><path d="M0 0h1024v1024H0z" fill="#FFF5E6" p-id="8261"></path><path d="M300.8 883.2c-29.866667-40.533333-93.866667-288-66.133333-484.266667 14.933333-100.266667 59.733333-189.866667 132.266666-228.266666 213.333333-115.2 347.733333 29.866667 398.933334 140.8 49.066667 110.933333 51.2 435.2-55.466667 584.533333s-362.666667 46.933333-409.6-12.8z" fill="#313D63" p-id="8262"></path><path d="M275.2 516.266667c0 29.866667 23.466667 53.333333 53.333333 53.333333s53.333333-23.466667 53.333334-53.333333-23.466667-53.333333-53.333334-53.333334c-29.866667-2.133333-53.333333 23.466667-53.333333 53.333334m373.333333 0c0 21.333333 12.8 42.666667 34.133334 49.066666 19.2 8.533333 42.666667 4.266667 59.733333-10.666666 14.933333-14.933333 19.2-38.4 10.666667-59.733334-8.533333-19.2-27.733333-34.133333-49.066667-34.133333-32 0-55.466667 25.6-55.466667 55.466667m-134.4 117.333333c25.6 0 46.933333 27.733333 46.933334 61.866667v55.466666c0 34.133333-21.333333 61.866667-46.933334 61.866667-25.6 0-46.933333-27.733333-46.933333-61.866667v-55.466666c-2.133333-34.133333 19.2-61.866667 46.933333-61.866667" fill="#FDD4BD" p-id="8263"></path><path d="M324.266667 386.133333v149.333334c0 74.666667 106.666667 189.866667 192 189.866666s192-115.2 192-189.866666v-149.333334c0-106.666667-85.333333-192-192-192s-192 85.333333-192 192z" fill="#FEDFCB" p-id="8264"></path><path d="M435.2 283.733333c68.266667 89.6 189.866667 170.666667 283.733333 179.2 93.866667 8.533333 34.133333-162.133333 0-196.266666-34.133333-34.133333-125.866667-96-183.466666-96-57.6-2.133333-168.533333 21.333333-100.266667 113.066666z" fill="#313D63" p-id="8265"></path><path d="M443.733333 262.4c0 72.533333-74.666667 179.2-119.466666 196.266667s-34.133333-108.8-10.666667-157.866667c23.466667-49.066667 76.8-104.533333 104.533333-104.533333s25.6-4.266667 25.6 66.133333z" fill="#313D63" p-id="8266"></path><path d="M812.8 923.733333c-179.2 130.133333-422.4 130.133333-601.6 0C277.333333 817.066667 386.133333 746.666667 512 746.666667c123.733333 0 234.666667 70.4 300.8 177.066666z" fill="#FDD4BD" p-id="8267"></path><path d="M819.2 1021.866667c12.8-27.733333 12.8-59.733333-6.4-98.133334-42.666667-70.4-108.8-125.866667-185.6-155.733333-23.466667 42.666667-68.266667 68.266667-115.2 68.266667S420.266667 810.666667 396.8 768c-76.8 29.866667-142.933333 85.333333-185.6 155.733333-19.2 38.4-19.2 70.4-4.266667 98.133334h612.266667z" fill="#FF9C9C" p-id="8268"></path></svg>