<?xml version="1.0" standalone="no"?><!DOCTYPE svg PUBLIC "-//W3C//DTD SVG 1.1//EN" "http://www.w3.org/Graphics/SVG/1.1/DTD/svg11.dtd"><svg t="1766821645828" class="icon" viewBox="0 0 1024 1024" version="1.1" xmlns="http://www.w3.org/2000/svg" p-id="8417" xmlns:xlink="http://www.w3.org/1999/xlink" width="200" height="200"><path d="M0 0h1024v1024H0z" fill="#EBF6FF" p-id="8418"></path><path d="M516.266667 674.133333c25.6 0 46.933333 27.733333 46.933333 61.866667v55.466667c0 34.133333-21.333333 61.866667-46.933333 61.866666S469.333333 825.6 469.333333 791.466667v-55.466667c0-34.133333 21.333333-61.866667 46.933334-61.866667" fill="#FFCAB4" p-id="8419"></path><path d="M281.6 526.933333c0 29.866667 23.466667 53.333333 53.333333 53.333334s53.333333-23.466667 53.333334-53.333334-23.466667-53.333333-53.333334-53.333333c-29.866667-2.133333-53.333333 23.466667-53.333333 53.333333m362.666667 0c0 21.333333 12.8 42.666667 34.133333 49.066667 19.2 8.533333 42.666667 4.266667 59.733333-12.8 14.933333-14.933333 19.2-38.4 12.8-59.733333S723.2 469.333333 701.866667 469.333333c-34.133333 2.133333-57.6 27.733333-57.6 57.6" fill="#FDD4BD" p-id="8420"></path><path d="M475.733333 885.333333s29.866667 23.466667 40.533334 23.466667 38.4-21.333333 40.533333-23.466667c0-2.133333-36.266667-36.266667-36.266667-36.266666H512l-36.266667 36.266666z" fill="#F4744A" p-id="8421"></path><path d="M328.533333 407.466667v149.333333c0 74.666667 76.8 189.866667 192 189.866667 117.333333 0 192-115.2 192-189.866667v-149.333333c0-106.666667-85.333333-192-192-192s-192 85.333333-192 192z" fill="#FFE1CD" p-id="8422"></path><path d="M710.4 413.866667c0 64-10.666667 74.666667-10.666667 74.666666s36.266667-12.8 51.2-93.866666c12.8-76.8 14.933333-145.066667 14.933334-145.066667l-128 8.533333s72.533333 53.333333 72.533333 155.733334" fill="#604347" p-id="8423"></path><path d="M778.666667 221.866667c-10.666667 6.4-74.666667 4.266667-115.2-27.733334-100.266667-78.933333-230.4-72.533333-309.333334-10.666666-61.866667 49.066667-89.6 145.066667-59.733333 292.266666 0 0 8.533333 8.533333 14.933333 12.8 12.8 8.533333 21.333333 10.666667 21.333334 10.666667s-8.533333-93.866667 6.4-119.466667c14.933333-23.466667 38.4-64 96-55.466666 145.066667 19.2 349.866667 6.4 354.133333-96 2.133333-2.133333 2.133333-14.933333-8.533333-6.4" fill="#4B3335" p-id="8424"></path><path d="M499.2 1024H896c10.666667-21.333333-4.266667-59.733333-53.333333-117.333333-2.133333-2.133333-4.266667-4.266667-4.266667-6.4-17.066667-14.933333-36.266667-32-64-46.933334-61.866667-36.266667-147.2-59.733333-179.2-68.266666-32-8.533333-27.733333-8.533333-32 0-8.533333 14.933333-25.6 23.466667-42.666667 23.466666-23.466667 0-32-6.4-40.533333-14.933333-4.266667-4.266667-8.533333-10.666667-10.666667-17.066667-53.333333 4.266667-145.066667 38.4-200.533333 68.266667-29.866667 17.066667-57.6 36.266667-81.066667 61.866667-51.2 57.6-66.133333 93.866667-57.6 117.333333h369.066667z" fill="#4758C2" p-id="8425"></path><path d="M469.333333 768c0-4.266667-66.133333 14.933333-66.133333 14.933333 6.4 21.333333 14.933333 42.666667 25.6 61.866667 14.933333 29.866667 34.133333 64 38.4 64 6.4 0 23.466667-25.6 44.8-59.733333 0 0-14.933333-10.666667-29.866667-38.4-6.4-14.933333-8.533333-27.733333-12.8-42.666667z m96 2.133333c0-4.266667 64 14.933333 64 14.933334-6.4 21.333333-14.933333 42.666667-25.6 61.866666-14.933333 29.866667-34.133333 64-38.4 64-6.4 0-23.466667-25.6-44.8-59.733333 0 0 14.933333-10.666667 29.866667-38.4 6.4-17.066667 10.666667-29.866667 14.933333-42.666667z" fill="#FFFFFF" p-id="8426"></path></svg>