<?xml version="1.0" standalone="no"?><!DOCTYPE svg PUBLIC "-//W3C//DTD SVG 1.1//EN" "http://www.w3.org/Graphics/SVG/1.1/DTD/svg11.dtd"><svg t="1767581930415" class="icon" viewBox="0 0 1024 1024" version="1.1" xmlns="http://www.w3.org/2000/svg" p-id="1284" xmlns:xlink="http://www.w3.org/1999/xlink" width="200" height="200"><path d="M433.7664 88.6784c-26.88 0-42.9568 21.8624-42.9568 48.7424v152.1664h-31.2832V137.4208a48.6912 48.6912 0 1 0-97.28 0v152.1664h-31.4368V137.4208c0-26.88-16.0768-48.7424-42.9056-48.7424a48.7424 48.7424 0 0 0-48.6912 48.7424v187.9552h0.5632C145.5104 416.4096 191.488 494.592 256 523.3664l-10.24 344.7808a65.1776 65.1776 0 1 0 130.2528 0l-10.5472-344.7808C430.08 494.592 476.16 416.4096 481.8432 325.376h0.6144V137.4208a48.7936 48.7936 0 0 0-48.6912-48.7424zM839.68 93.44a49.8688 49.8688 0 0 0-52.736 6.5536C726.272 148.8896 624.64 261.888 624.64 469.504c0 69.6832 44.7488 118.7328 117.76 130.6112-5.8368 115.0976-10.7008 203.4176-13.7216 257.8944a74.5472 74.5472 0 0 0 20.48 55.7568 69.0688 69.0688 0 0 0 50.0736 21.5552 71.9872 71.9872 0 0 0 70.6048-73.1136V141.4144a52.1728 52.1728 0 0 0-30.1568-47.9744z" fill="#0ea5e9" p-id="1285"></path></svg>